<?xml version="1.0" encoding="UTF-8" ?>
<svg version="1.1" width="16" height="16" xmlns="http://www.w3.org/2000/svg" shape-rendering="crispEdges">
<rect x="4" y="0" width="8" height="2" fill="#AC3232" />
<rect x="2" y="2" width="2" height="2" fill="#AC3232" />
<rect x="12" y="2" width="2" height="6" fill="#AC3232" />
<rect x="0" y="4" width="2" height="4" fill="#AC3232" />
<rect x="6" y="4" width="4" height="2" fill="#CBDBFC" />
<rect x="14" y="4" width="2" height="2" fill="#AC3232" />
<rect x="4" y="6" width="2" height="4" fill="#CBDBFC" />
<rect x="6" y="6" width="4" height="4" fill="#9BADB7" />
<rect x="10" y="6" width="2" height="4" fill="#CBDBFC" />
<rect x="2" y="8" width="2" height="6" fill="#306082" />
<rect x="14" y="8" width="2" height="4" fill="#306082" />
<rect x="0" y="10" width="2" height="2" fill="#306082" />
<rect x="6" y="10" width="4" height="2" fill="#CBDBFC" />
<rect x="12" y="12" width="2" height="2" fill="#306082" />
<rect x="4" y="14" width="8" height="2" fill="#306082" />
</svg>